<svg width="14" height="17" viewBox="0 0 14 17" fill="none" xmlns="http://www.w3.org/2000/svg">
<rect x="0.75" y="0.75" width="12.5" height="12.5" rx="6.25" fill="#5c0cde"/>
<path d="M6.76377 16.0681C6.84145 16.2923 7.15855 16.2923 7.23623 16.0681L8.18409 13.3318C8.24035 13.1694 8.11973 13 7.94786 13H6.05214C5.88027 13 5.75965 13.1694 5.81591 13.3318L6.76377 16.0681Z" fill="white"/>
<path d="M9.12133 6.66C9.642 7.18033 9.642 8.02467 9.12133 8.54533L7.23567 10.431C7.10567 10.561 6.89433 10.561 6.76433 10.431L4.87867 8.54533C4.358 8.02467 4.358 7.18033 4.87867 6.65967C5.39933 6.139 6.24367 6.139 6.76433 6.65967L6.99967 6.89533L7.23567 6.65967C7.75633 6.139 8.60067 6.139 9.12133 6.65967V6.66ZM5.35 7.13067C5.09 7.391 5.09 7.81333 5.35 8.07367L7 9.72367L8.65 8.07367C8.91 7.81333 8.91 7.391 8.65 7.13067C8.38967 6.87067 7.96733 6.87067 7.70667 7.13133L6.99933 7.83733L6.29267 7.13067C6.03267 6.87067 5.61033 6.87067 5.35 7.13067V7.13067ZM7 3.33333C7.73667 3.33333 8.33333 3.93 8.33333 4.66667C8.33333 5.40333 7.73667 6 7 6C6.26333 6 5.66667 5.40333 5.66667 4.66667C5.66667 3.93 6.26333 3.33333 7 3.33333ZM7 4C6.63167 4 6.33333 4.29833 6.33333 4.66667C6.33333 5.035 6.63167 5.33333 7 5.33333C7.36833 5.33333 7.66667 5.035 7.66667 4.66667C7.66667 4.29833 7.36833 4 7 4Z" fill="white"/>
<rect x="0.75" y="0.75" width="12.5" height="12.5" rx="6.25" stroke="white" stroke-width="0.5"/>
</svg>
